HIERARCHY
ROOT joint_Root
{
	OFFSET 0.0 0.0 0.0
	CHANNELS 6 Xposition Yposition Zposition Zrotation Xrotation Yrotation 
	JOINT Hips
	{
		OFFSET -0.726466 93.3139 -2.00062
		CHANNELS 6 Xposition Yposition Zposition Zrotation Xrotation Yrotation 
		JOINT Spine
		{
			OFFSET 15.7357 0.0 0.0
			CHANNELS 6 Xposition Yposition Zposition Zrotation Xrotation Yrotation 
			JOINT Chest
			{
				OFFSET 8.98455 -0.406207 0.0
				CHANNELS 6 Xposition Yposition Zposition Zrotation Xrotation Yrotation 
				JOINT Neck
				{
					OFFSET 16.3773 0.0 0.0
					CHANNELS 6 Xposition Yposition Zposition Zrotation Xrotation Yrotation 
					JOINT Head
					{
						OFFSET 6.45672 0.0 0.0
						CHANNELS 6 Xposition Yposition Zposition Zrotation Xrotation Yrotation 
						End Site
						{
							OFFSET 0.0 0.0 0.0
						}
					}
				}
				JOINT Shoulder_L
				{
					OFFSET 12.9942 -0.242716 4.98039
					CHANNELS 6 Xposition Yposition Zposition Zrotation Xrotation Yrotation 
					JOINT UpperArm_L
					{
						OFFSET 5.34809 0.0 0.0
						CHANNELS 6 Xposition Yposition Zposition Zrotation Xrotation Yrotation 
						JOINT LowerArm_L
						{
							OFFSET 24.3286 1.87007e-05 0.0
							CHANNELS 6 Xposition Yposition Zposition Zrotation Xrotation Yrotation 
							JOINT Hand_L
							{
								OFFSET 22.2916 0.0 0.0
								CHANNELS 6 Xposition Yposition Zposition Zrotation Xrotation Yrotation 
								End Site
								{
									OFFSET 0.0 0.0 0.0
								}
							}
						}
					}
				}
				JOINT Shoulder_R
				{
					OFFSET 12.9945 -0.242716 -4.98039
					CHANNELS 6 Xposition Yposition Zposition Zrotation Xrotation Yrotation 
					JOINT UpperArm_R
					{
						OFFSET -5.34813 0.0 0.0
						CHANNELS 6 Xposition Yposition Zposition Zrotation Xrotation Yrotation 
						JOINT LowerArm_R
						{
							OFFSET -24.3289 0.000322201 0.0
							CHANNELS 6 Xposition Yposition Zposition Zrotation Xrotation Yrotation 
							JOINT Hand_R
							{
								OFFSET -22.2915 -0.000108084 0.0
								CHANNELS 6 Xposition Yposition Zposition Zrotation Xrotation Yrotation 
								End Site
								{
									OFFSET 0.0 0.0 0.0
								}
							}
						}
					}
				}
			}
		}
		JOINT UpperLeg_L
		{
			OFFSET -2.19248 -6.46944 0.0
			CHANNELS 6 Xposition Yposition Zposition Zrotation Xrotation Yrotation 
			JOINT LowerLeg_L
			{
				OFFSET 39.0811 0.0 -1.23785e-05
				CHANNELS 6 Xposition Yposition Zposition Zrotation Xrotation Yrotation 
				JOINT Foot_L
				{
					OFFSET 40.9854 0.0 -1.26872e-05
					CHANNELS 6 Xposition Yposition Zposition Zrotation Xrotation Yrotation 
					JOINT Toes_L
					{
						OFFSET 11.7543 0.0 0.0
						CHANNELS 6 Xposition Yposition Zposition Zrotation Xrotation Yrotation 
						End Site
						{
							OFFSET 0.0 0.0 0.0
						}
					}
				}
			}
		}
		JOINT UpperLeg_R
		{
			OFFSET -2.19251 6.46944 0.0
			CHANNELS 6 Xposition Yposition Zposition Zrotation Xrotation Yrotation 
			JOINT LowerLeg_R
			{
				OFFSET -39.0811 -0.00228153 -0.0401928
				CHANNELS 6 Xposition Yposition Zposition Zrotation Xrotation Yrotation 
				JOINT Foot_R
				{
					OFFSET -40.9854 0.0 0.0
					CHANNELS 6 Xposition Yposition Zposition Zrotation Xrotation Yrotation 
					JOINT Toes_R
					{
						OFFSET -11.7543 0.0 0.0
						CHANNELS 6 Xposition Yposition Zposition Zrotation Xrotation Yrotation 
						End Site
						{
							OFFSET 0.0 0.0 0.0
						}
					}
				}
			}
		}
	}
}
MOTION
Frames:	4
Frame Time:	0.0333333
0.000000 0.000000 0.000000 0.000000 0.000000 -0.000000 -2.299350 93.227100 -1.575870 88.817500 -2.365010 -0.612058 15.735700 0.000005 -0.000001 116.554000 87.331400 -117.212000 8.984550 -0.406207 -0.000000 -2.978610 2.446710 -1.252670 16.377300 -0.000001 -0.000001 2.202420 -4.983640 7.542980 6.456720 -0.000001 -0.000000 6.537280 -3.977090 -4.216800 12.994200 -0.242716 4.980390 -89.700200 -0.883235 -71.251700 5.348090 -0.000007 -0.000001 -74.231900 31.780100 -7.734570 24.328600 0.000019 0.000005 4.451300 11.440300 -21.428700 22.291600 -0.000001 0.000005 4.380300 5.477620 -5.657730 12.994500 -0.242716 -4.980390 92.091600 -4.829980 -66.550700 -5.348130 -0.000001 -0.000004 -58.857000 -55.680800 -118.498000 -24.328900 0.000322 -0.000009 9.158260 5.805310 -57.896100 -22.291500 -0.000108 -0.000004 29.971000 5.550620 -8.736010 -2.192480 -6.469440 -0.000000 -175.938000 -9.283960 -4.164810 39.081100 -0.000007 -0.000012 -0.054518 0.207974 14.688900 40.985400 -0.000006 -0.000013 -1.380740 3.797530 -61.098700 11.754300 -0.000000 0.000003 -0.000005 -0.000068 -16.580200 -2.192510 6.469440 -0.000001 -178.697000 11.899200 178.367000 -39.081100 -0.002282 -0.040193 -0.009868 0.063949 11.666200 -40.985400 0.000008 0.000006 4.267910 6.536560 -61.484900 -11.754300 -0.000006 -0.000006 -0.006202 -0.072658 -19.530300
0.000000 0.000000 0.000000 0.000000 0.000000 -0.000000 -2.220730 93.241100 -1.578550 88.823400 -2.174200 -0.645234 15.735700 0.000005 -0.000001 116.037000 87.361500 -116.745000 8.984550 -0.406207 -0.000000 -3.010580 2.381950 -1.354050 16.377300 -0.000001 -0.000001 2.138570 -4.831270 7.367710 6.456720 -0.000001 -0.000000 6.346560 -3.821180 -4.342040 12.994200 -0.242716 4.980390 -89.715700 -0.833677 -71.169000 5.348090 -0.000007 -0.000001 -74.294700 32.225600 -7.609840 24.328600 0.000019 0.000005 4.456960 11.096800 -22.046800 22.291600 -0.000001 0.000005 4.276730 5.481610 -5.810630 12.994500 -0.242716 -4.980390 92.092200 -4.834630 -66.565200 -5.348130 -0.000001 -0.000004 -61.038600 -56.283500 -118.260000 -24.328900 0.000322 -0.000009 7.655950 6.160860 -51.397700 -22.291500 -0.000108 -0.000004 29.360900 5.531840 -7.872790 -2.192480 -6.469440 -0.000000 -176.010000 -9.250980 -4.184790 39.081100 -0.000007 -0.000012 -0.052073 0.200045 14.590600 40.985400 -0.000006 -0.000013 -1.307900 3.894890 -61.032200 11.754300 -0.000000 0.000003 -0.000004 -0.000056 -16.579700 -2.192510 6.469440 -0.000001 -178.720000 11.995900 178.409000 -39.081100 -0.002282 -0.040193 -0.007817 0.054658 11.533300 -40.985400 0.000008 0.000006 4.376910 6.422310 -61.441300 -11.754300 -0.000006 -0.000006 -0.006145 -0.072145 -19.509400
0.000000 0.000000 0.000000 0.000000 0.000000 -0.000000 -2.127350 93.247600 -1.579270 88.822700 -2.004840 -0.706568 15.735700 0.000005 -0.000001 115.499000 87.405800 -116.256000 8.984550 -0.406207 -0.000000 -3.068470 2.304190 -1.453960 16.377300 -0.000001 -0.000001 2.054720 -4.649980 7.110020 6.456720 -0.000001 -0.000000 6.284040 -3.550320 -4.630920 12.994200 -0.242716 4.980390 -89.722100 -0.813985 -71.149700 5.348090 -0.000007 -0.000001 -74.251800 32.424700 -7.577550 24.328600 0.000019 0.000005 4.495470 10.937800 -22.507100 22.291600 -0.000001 0.000005 4.150610 5.482690 -5.851650 12.994500 -0.242716 -4.980390 92.109200 -4.890060 -66.633100 -5.348130 -0.000001 -0.000004 -63.919100 -56.747900 -118.353000 -24.328900 0.000322 -0.000009 6.162310 6.389450 -44.135400 -22.291500 -0.000108 -0.000004 27.896300 5.489980 -6.117650 -2.192480 -6.469440 -0.000000 -176.083000 -9.173740 -4.271520 39.081100 -0.000007 -0.000012 -0.051686 0.198726 14.578600 40.985400 -0.000006 -0.000013 -1.226050 4.000560 -61.016300 11.754300 -0.000000 0.000003 -0.000004 -0.000056 -16.579700 -2.192510 6.469440 -0.000001 -178.763000 12.093600 178.370000 -39.081100 -0.002282 -0.040193 -0.007009 0.050903 11.488100 -40.985400 0.000008 0.000006 4.399850 6.377320 -61.421200 -11.754300 -0.000006 -0.000006 -0.006475 -0.075087 -19.629400
0.000000 0.000000 0.000000 0.000000 0.000000 -0.000000 -2.013940 93.256300 -1.571060 88.831300 -1.952270 -0.773347 15.735700 0.000005 -0.000001 115.370000 87.443300 -116.161000 8.984550 -0.406207 -0.000000 -3.130730 2.265170 -1.520640 16.377300 -0.000001 -0.000001 1.977620 -4.389210 6.761660 6.456720 -0.000001 -0.000000 6.223180 -3.290950 -4.968330 12.994200 -0.242716 4.980390 -89.742700 -0.752576 -71.121900 5.348090 -0.000007 -0.000001 -74.021200 32.549500 -7.698030 24.328600 0.000019 0.000005 4.510280 10.872500 -22.694400 22.291600 -0.000001 0.000005 4.175450 5.481290 -5.797650 12.994500 -0.242716 -4.980390 92.174000 -5.069780 -66.752100 -5.348130 -0.000001 -0.000004 -67.062600 -57.205500 -118.440000 -24.328900 0.000322 -0.000009 4.625420 6.203770 -36.820200 -22.291500 -0.000108 -0.000004 26.237800 5.432940 -4.031680 -2.192480 -6.469440 -0.000000 -176.175000 -9.213960 -4.321090 39.081100 -0.000007 -0.000012 -0.050923 0.196588 14.522300 40.985400 -0.000006 -0.000013 -1.134440 4.109880 -60.992500 11.754300 -0.000000 0.000003 -0.000006 -0.000079 -16.580600 -2.192510 6.469440 -0.000001 -178.822000 12.150000 178.351000 -39.081100 -0.002282 -0.040193 -0.006069 0.046613 11.407300 -40.985400 0.000008 0.000006 4.385390 6.341870 -61.382800 -11.754300 -0.000006 -0.000006 -0.006705 -0.077109 -19.711900
